# AST/ASF file generated using VICON BodyLanguage
# -----------------------------------------------
:version 1.10
:name VICON
:units
  mass 1.0
  length 0.45
  angle deg
:documentation
   .ast/.asf automatically generated from VICON data using
   VICON BodyBuilder and BodyLanguage model FoxedUp or BRILLIANT.MOD
:root
   order TX TY TZ RX RY RZ
   axis XYZ
   position 0 0 0  
   orientation 0 0 0 
:bonedata
  begin
     id 1 
     name lhipjoint
     direction 0.734343 -0.627749 0.258209 
     length 2.5437 
     axis 0 0 0  XYZ
  end
  begin
     id 2 
     name lfemur
     direction 0.34202 -0.939693 0  
     length 6.7391  
     axis 0 0 20  XYZ
    dof rx ry rz
    limits (-160.0 20.0)
           (-70.0 70.0)
           (-60.0 70.0)
  end
  begin
     id 3 
     name ltibia
     direction 0.34202 -0.939693 0   
     length 7.21536   
     axis 0 0 20   XYZ
    dof rx
    limits (-10.0 170.0)
  end
  begin
     id 4 
     name lfoot
     direction 0.0489572 -0.134509 0.989702   
     length 1.61313   
     axis -90 7.62852e-016 20   XYZ
    dof rx rz
    limits (-45.0 90.0)
           (-70.0 20.0)
  end
  begin
     id 5 
     name ltoes
     direction 1.53451e-011 -4.21692e-011 1   
     length 0.823104   
     axis -90 7.62852e-016 20   XYZ
    dof rx
    limits (-90.0 20.0)
  end
  begin
     id 6 
     name rhipjoint
     direction -0.746398 -0.615468 0.253157   
     length 2.59446  
     axis 0 0 0  XYZ 
  end
  begin
     id 7 
     name rfemur
     direction -0.34202 -0.939693 0   
     length 6.7075   
     axis 0 0 -20   XYZ
    dof rx ry rz
    limits (-160.0 20.0)
           (-70.0 70.0)
           (-70.0 60.0)
  end
  begin
     id 8 
     name rtibia
     direction -0.34202 -0.939693 0   
     length 7.27262   
     axis 0 0 -20   XYZ
    dof rx
    limits (-10.0 170.0)
 end
 begin
     id 9 
     name rfoot
     direction -0.0455203 -0.125066 0.991104   
     length 1.91095  
     axis -90 -7.62852e-016 -20   XYZ
    dof rx rz
    limits (-45.0 90.0)
           (-20.0 70.0)
  end
  begin
     id 10 
     name rtoes
     direction -1.53601e-011 -4.21913e-011 1   
     length 0.969037   
     axis -90 -7.62852e-016 -20   XYZ
    dof rx
    limits (-90.0 20.0)
  end
  begin
     id 11 
     name lowerback
     direction 0.0181546 0.999122 -0.0377542   
     length 1.99916   
     axis 0 0 0   XYZ
    dof rx ry rz
    limits (-20.0 45.0)
           (-30.0 30.0)
           (-30.0 30.0)
  end
  begin
     id 12 
     name upperback
     direction 0.0203486 0.99589 0.0882534   
     length 1.951   
     axis 0 0 0   XYZ
    dof rx ry rz
    limits (-20.0 45.0)
           (-30.0 30.0)
           (-30.0 30.0)
  end
  begin
     id 13 
     name thorax
     direction 0.0131685 0.994241 0.106355   
     length 1.97461   
     axis 0 0 0   XYZ
    dof rx ry rz
    limits (-20.0 45.0)
           (-30.0 30.0)
           (-30.0 30.0)
  end
  begin
     id 14 
     name lowerneck
     direction -0.0281395 0.999325 0.023617   
     length 1.7959   
     axis 0 0 0   XYZ
    dof rx ry rz
    limits (-20.0 45.0)
           (-30.0 30.0)
           (-30.0 30.0)
  end
  begin
     id 15 
     name upperneck
     direction 0.0288721 0.991984 -0.123019   
     length 1.79917   
     axis 0 0 0   XYZ
    dof rx ry rz
    limits (-20.0 45.0)
           (-30.0 30.0)
           (-30.0 30.0)
  end
  begin
     id 16
     name head
     direction 0.0133797 0.998944 -0.0439492  
     length 1.80902  
     axis 0 0 0   XYZ
    dof rx ry rz
    limits (-20.0 45.0)
           (-30.0 30.0)
           (-30.0 30.0)
  end
  begin
     id 17 
     name lclavicle
     direction 0.919195 0.377107 0.113449  
     length 3.17815  
     axis 0 0 0   XYZ
    dof ry rz
    limits (-20.0 10.0)
           (0.0 20.0)
  end
  begin
     id 18 
     name lhumerus
     direction 1 -4.48959e-011 2.13129e-027   
     length 4.84137   
     axis 180 -30 -90   XYZ
    dof rx ry rz
    limits (-60.0 90.0)
           (-90.0 90.0)
           (-90.0 90.0)
  end
  begin
     id 19
     name lradius
     direction 1 -4.48957e-011 -6.30627e-028   
     length 3.2452   
     axis 180 -30 -90   XYZ
    dof rx
    limits (-10.0 170.0)
  end
  begin
     id 20
     name lwrist
     direction 1 -4.4901e-011 9.13299e-027   
     length 1.6226   
     axis -6.84618e-015 90 90   XYZ
    dof ry
    limits (-180.0 0.0)
 end
  begin
     id 21 
     name lhand
     direction 1 -4.48816e-011 1.82293e-026   
     length 0.521221   
     axis -1.16502e-014 90 90   XYZ
    dof rx rz
    limits (-90.0 90.0)
           (-45.0 45.0)
  end
  begin
     id 22 
     name lfingers
     direction 1 -4.49108e-011 3.65687e-026   
     length 0.420221   
     axis -2.33008e-014 90 90   XYZ
    dof rx
    limits (0.0 90.0)
  end
  begin
     id 23
     name lthumb
     direction 0.707107 -6.34943e-011 0.707107   
     length 0.603356   
     axis -90 45 5.69224e-014   XYZ
    dof rx rz
    limits (-45.0 45.0)
           (-45.0 45.0)
  end
  begin
     id 24 
     name rclavicle
     direction -0.90847 0.38596 0.160368   
     length 3.12973  
     axis 0 0 0   XYZ 
    dof ry rz
    limits (-10.0 20.0)
           (-20.0 0.0)
  end
  begin
     id 25 
     name rhumerus
     direction -1 -4.48974e-011 4.47268e-028  
     length 4.72284   
     axis 180 30 90   XYZ
    dof rx ry rz
    limits (-90.0 60.0)
           (-90.0 90.0)
           (-90.0 90.0)
  end
  begin
     id 26 
     name rradius
     direction -1 -4.48969e-011 3.43203e-027   
     length 3.23459   
     axis 180 30 90   XYZ
    dof rx
    limits (-10.0 170.0)
  end
  begin
     id 27 
     name rwrist
     direction -1 -4.48969e-011 9.12911e-027   
     length 1.6173   
     axis -6.84618e-015 -90 -90   XYZ
    dof ry
    limits (-180.0 0.0)
  end
  begin
     id 28
     name rhand
     direction -1 -4.49194e-011 1.83006e-026   
     length 0.307416   
     axis -1.16502e-014 -90 -90   XYZ
    dof rx rz
    limits (-90.0 90.0)
           (-45.0 45.0)
  end
  begin
     id 29
     name rfingers
     direction -1 -4.48423e-011 3.63103e-026   
     length 0.247847   
     axis -2.33008e-014 -90 -90   XYZ
    dof rx
    limits (0.0 90.0)
  end
  begin
     id 30
     name rthumb
     direction -0.707107 -6.34802e-011 0.707107   
     length 0.35586   
     axis -90 -45 -5.69224e-014   XYZ
    dof rx rz
    limits (-45.0 45.0)
           (-45.0 45.0)
  end
:hierarchy
  begin
    root lhipjoint rhipjoint lowerback
    lhipjoint lfemur
    lfemur ltibia
    ltibia lfoot
    lfoot ltoes
    rhipjoint rfemur
    rfemur rtibia
    rtibia rfoot
    rfoot rtoes
    lowerback upperback
    upperback thorax
    thorax lowerneck lclavicle rclavicle
    lowerneck upperneck
    upperneck head
    lclavicle lhumerus
    lhumerus lradius
    lradius lwrist
    lwrist lhand lthumb
    lhand lfingers
    rclavicle rhumerus
    rhumerus rradius
    rradius rwrist
    rwrist rhand rthumb
    rhand rfingers
  end

#!OML:ASF \\Waltz\H\Terrain\Patient Classification 1\Animal1\Tuesday\Animal1.ASF
:FULLY-SPECIFIED
:DEGREES
1704
root 8.89807 14.7762 -5.5045 36.9549 -36.848 3.20551
lowerback 31.0664 -0.92238 -1.5501
upperback -2.77844 -1.46794 1.78031
thorax -19.7486 -0.316851 3.53884
lowerneck -11.4993 -3.4089 -7.27828
upperneck -1.98119 -3.96413 12.2774
head 1.70209 -1.69917 4.71698
rclavicle 4.77083e-014 -1.14102e-013
rhumerus -59.7519 19.7649 -93.2355
rradius 32.9342
rwrist -2.95343
rhand -8.97311 29.9479
rfingers 7.12502
rthumb 16.9723 360.669
lclavicle 4.77083e-014 -1.14102e-013
lhumerus -52.6795 -3.26987 73.21
lradius 45.2758
lwrist -23.4385
lhand 5.37634 -325.633
lfingers 7.12502
lthumb 30.7289 421.82
rfemur -68.9027 7.45516 8.13595
rtibia 80.3213
rfoot -13.887 5.93079
rtoes -28.4821
lfemur -86.0842 -10.6822 -9.1648
ltibia 55.0013
lfoot -9.19371 -1.46136
ltoes -11.6845
1705
root 8.90759 14.78 -5.51767 36.4678 -37.0106 3.30489
lowerback 31.7035 -0.868662 -1.76479
upperback -2.32018 -1.47933 1.82998
thorax -19.4678 -0.310462 3.71592
lowerneck -10.8928 -3.24894 -7.38585
upperneck -4.24072 -3.60136 12.2256
head 0.905468 -1.59294 4.76088
rclavicle 1.59028e-015 -5.77469e-014
rhumerus -59.6829 20.2535 -93.344
rradius 33.5662
rwrist -3.61136
rhand -8.19217 30.5605
rfingers 7.12502
rthumb 17.7239 361.348
lclavicle 1.59028e-015 -5.77469e-014
lhumerus -52.5811 -3.48236 73.5935
lradius 45.7088
lwrist -23.33
lhand 4.73109 -325.687
lfingers 7.12502
lthumb 30.1135 421.88
rfemur -68.6304 7.41197 8.12226
rtibia 80.4927
rfoot -13.5289 6.27832
rtoes -27.3177
lfemur -85.7092 -10.7375 -9.35518
ltibia 55.0597
lfoot -8.88608 -1.58276
ltoes -8.67025
1706
root 8.91473 14.7792 -5.53136 35.8928 -37.2773 3.43437
lowerback 32.4125 -0.699257 -1.94103
upperback -1.88714 -1.36729 1.68601
thorax -19.2616 -0.269457 3.59853
lowerneck -10.0534 -3.11951 -7.19103
upperneck -6.65046 -3.32314 12.1383
head 0.0327498 -1.54343 4.74692
rclavicle 6.06293e-015 -2.38542e-015
rhumerus -59.6621 20.0657 -93.3517
rradius 34.0077
rwrist -4.019
rhand -8.52621 30.4849
rfingers 7.12502
rthumb 17.4025 361.244
lclavicle 6.06293e-015 -2.38542e-015
lhumerus -52.4574 -4.33186 73.9644
lradius 46.1442
lwrist -23.0084
lhand 4.29551 -325.904
lfingers 7.12502
lthumb 29.6978 421.738
rfemur -68.2794 7.47869 8.02033
rtibia 80.6125
rfoot -13.4188 6.2547
rtoes -27.7295
lfemur -85.2065 -10.7325 -9.64276
ltibia 55.1114
lfoot -8.88206 -1.56401
ltoes -8.28092
1707
root 8.91747 14.7729 -5.54979 35.5696 -37.5985 3.41888
lowerback 32.909 -0.482699 -2.15274
upperback -1.47959 -1.20423 1.56253
thorax -18.9868 -0.204787 3.49645
lowerneck -8.99104 -2.99132 -6.97298
upperneck -9.17641 -3.05474 12.0285
head -0.908255 -1.50979 4.73179
rclavicle -2.27608e-014 -1.49089e-014
rhumerus -60.0969 19.9344 -93.6412
rradius 35.0899
rwrist -4.40019
rhand -9.50302 29.6546
rfingers 7.12502
rthumb 16.4622 360.333
lclavicle -2.27608e-014 -1.49089e-014
lhumerus -52.376 -5.09748 74.2161
lradius 46.6361
lwrist -22.6915
lhand 4.58628 -326.351
lfingers 7.12502
lthumb 29.9753 421.24
rfemur -68.1668 7.68284 7.85944
rtibia 80.7762
rfoot -13.323 6.60318
rtoes -27.8981
lfemur -84.8871 -10.5587 -9.80536
ltibia 55.2067
lfoot -8.88992 -1.47608
ltoes -8.46524
1708
root 8.92217 14.7691 -5.5587 35.1952 -37.6045 3.22586
lowerback 33.5117 -0.445386 -1.94706
upperback -0.978969 -1.09465 1.54338
thorax -18.6448 -0.199687 3.30646
lowerneck -8.09359 -2.8848 -6.67222
upperneck -11.5363 -2.83857 11.7754
head -1.77716 -1.49551 4.65958
rclavicle 1.39149e-014 -1.81888e-014
rhumerus -60.7563 20.3079 -94.2723
rradius 36.6517
rwrist -5.29633
rhand -9.78138 29.2769
rfingers 7.12502
rthumb 16.1942 359.933
lclavicle 1.39149e-014 -1.81888e-014
lhumerus -52.1499 -5.56525 74.383
lradius 47.0935
lwrist -22.4778
lhand 5.14957 -326.539
lfingers 7.12502
lthumb 30.5126 420.954
rfemur -67.7304 7.71258 8.075
rtibia 80.905
rfoot -13.3671 6.98784
rtoes -27.6755
lfemur -84.4202 -10.5535 -9.73327
ltibia 55.295
lfoot -8.91503 -1.41945
ltoes -9.21997
1709
root 8.92633 14.7702 -5.55997 34.8612 -37.6591 2.93745
lowerback 34.101 -0.433043 -1.72886
upperback -0.488317 -1.00789 1.5494
thorax -18.3044 -0.202098 3.1492
lowerneck -7.62465 -2.79762 -6.43783
upperneck -13.2454 -2.67694 11.4938
head -2.38398 -1.47659 4.57589
rclavicle 4.96962e-014 -1.16289e-014
rhumerus -61.0818 20.959 -94.9714
rradius 37.2285
rwrist -6.26671
rhand -9.35507 30.07
rfingers 7.12502
rthumb 16.6046 360.76
lclavicle 4.96962e-014 -1.16289e-014
lhumerus -51.9971 -5.8387 74.5363
lradius 47.492
lwrist -22.4355
lhand 5.27475 -326.295
lfingers 7.12502
lthumb 30.632 421.176
rfemur -67.236 7.77914 8.50503
rtibia 80.9989
rfoot -14.1278 5.76477
rtoes -32.3158
lfemur -83.8825 -10.5234 -9.62392
ltibia 55.3749
lfoot -9.08458 -1.32236
ltoes -9.52536
1710
root 8.93143 14.7801 -5.56158 34.4164 -37.8497 3.23153
lowerback 34.4924 -0.417286 -1.90789
upperback -0.123098 -1.09432 1.42584
thorax -18.0141 -0.242723 3.143
lowerneck -7.44369 -2.74433 -6.24217
upperneck -14.2431 -2.59011 11.2563
head -2.72722 -1.46775 4.49437
rclavicle 6.98728e-014 -6.90777e-014
rhumerus -60.954 21.1801 -95.374
rradius 36.7114
rwrist -6.38816
rhand -9.48523 30.7708
rfingers 7.12502
rthumb 16.4793 361.451
lclavicle 6.98728e-014 -6.90777e-014
lhumerus -52.0426 -6.19389 74.7717
lradius 47.8828
lwrist -22.4242
lhand 4.73351 -325.725
lfingers 7.12502
lthumb 30.1158 421.841
rfemur -67.0003 7.60713 8.36434
rtibia 81.1078
rfoot -14.7339 4.79404
rtoes -35.4631
lfemur -83.5281 -10.671 -9.97093
ltibia 55.3532
lfoot -9.23698 -1.05764
ltoes -10.4485
1711
root 8.94108 14.774 -5.57143 34.3317 -37.8731 3.68364
lowerback 34.5811 -0.428538 -2.00844
upperback 0.00628038 -1.17709 1.29064
thorax -17.8862 -0.280468 3.08142
lowerneck -7.23807 -2.75903 -6.07326
upperneck -14.7991 -2.60886 11.125
head -2.9308 -1.50157 4.44022
rclavicle 1.68967e-015 -4.55217e-014
rhumerus -61.2805 21.1344 -95.8939
rradius 36.5377
rwrist -6.32481
rhand -10.2533 30.8968
rfingers 7.12502
rthumb 15.7398 361.517
lclavicle 1.68967e-015 -4.55217e-014
lhumerus -52.2851 -6.92761 75.1365
lradius 48.2773
lwrist -22.3133
lhand 4.33699 -325.13
lfingers 7.12502
lthumb 29.7374 422.505
rfemur -67.3841 7.24325 7.94742
rtibia 81.1941
rfoot -14.188 6.23529
rtoes -32.2754
lfemur -83.7296 -10.818 -10.2929
ltibia 55.1883
lfoot -9.10629 -1.04564
ltoes -11.3702
1712
root 8.95915 14.759 -5.5798 34.6183 -37.5852 3.85172
lowerback 34.6576 -0.601852 -1.60278
upperback -0.0249928 -1.24563 1.24653
thorax -17.9623 -0.343287 2.84478
lowerneck -6.94722 -2.79538 -6.14284
upperneck -15.2648 -2.63605 11.1731
head -3.11174 -1.5322 4.4819
rclavicle 1.21259e-014 -1.06549e-013
rhumerus -62.1034 21.2904 -96.6601
rradius 37.0036
rwrist -6.96186
rhand -9.92274 30.6338
rfingers 7.12502
rthumb 16.058 361.279
lclavicle 1.21259e-014 -1.06549e-013
lhumerus -52.753 -7.76919 75.5407
lradius 48.8015
lwrist -22.1293
lhand 4.77025 -324.817
lfingers 7.12502
lthumb 30.1508 422.743
rfemur -67.9693 6.77028 7.85623
rtibia 81.3368
rfoot -13.1904 7.9959
rtoes -26.3107
lfemur -84.3289 -10.9771 -10.2082
ltibia 55.1423
lfoot -9.23697 -1.31051
ltoes -12.1738
1713
root 8.96651 14.7778 -5.58972 34.7399 -37.3612 4.02487
lowerback 34.7173 -0.786065 -1.43443
upperback 0.0897469 -1.41446 1.2527
thorax -17.8401 -0.431562 2.83476
lowerneck -6.93665 -2.72894 -6.55383
upperneck -15.558 -2.47556 11.5495
head -3.19802 -1.45225 4.67795
rclavicle 2.54444e-014 -2.95195e-014
rhumerus -62.6634 21.706 -97.4045
rradius 37.2984
rwrist -7.46047
rhand -9.57611 30.6033
rfingers 7.12502
rthumb 16.3918 361.276
lclavicle 2.54444e-014 -2.95195e-014
lhumerus -53.1577 -8.19164 75.7964
lradius 49.3704
lwrist -22.0596
lhand 5.15968 -324.743
lfingers 7.12502
lthumb 30.5223 422.749
rfemur -68.1708 6.38516 7.95042
rtibia 81.4327
rfoot -13.7043 7.2408
rtoes -29.3565
lfemur -84.5381 -11.114 -10.218
ltibia 55.032
lfoot -9.57467 -1.419
ltoes -13.6469
